<?xml version="1.0" encoding="utf-8"?>
<!-- Generator: Adobe Illustrator 25.2.1, SVG Export Plug-In . SVG Version: 6.00 Build 0)  -->
<svg version="1.1" id="Calque_1" xmlns="http://www.w3.org/2000/svg" xmlns:xlink="http://www.w3.org/1999/xlink" x="0px" y="0px"
	 viewBox="0 0 1920 1080" style="enable-background:new 0 0 1920 1080;" xml:space="preserve">
<style type="text/css">
	.st0{fill:#E2DDDB;}
	.st1{fill:#FFFFFF;stroke:#333333;stroke-miterlimit:10;}
	.st2{fill:none;stroke:#333333;stroke-miterlimit:10;}
	.st3{fill:#333333;}
	.st4{fill:#F2BDB6;stroke:#333333;stroke-miterlimit:10;}
	.st5{fill:#F28577;stroke:#333333;stroke-miterlimit:10;}
	.st6{fill:#F2594E;stroke:#333333;stroke-miterlimit:10;}
	.st7{fill:#EF4023;stroke:#333333;stroke-miterlimit:10;}
	.st8{fill:#333333;stroke:#333333;stroke-miterlimit:10;}
</style>
<g id="Calque_1_1_">
	<g>
		<rect y="0" class="st0" width="1920" height="1080"/>
	</g>
	<g>
		<g>
			<rect x="78.97" y="295.51" class="st1" width="489.68" height="487.66"/>
		</g>
	</g>
	<g>
		<g>
			<g>
				<polyline class="st2" points="1546.15,351.27 1718.88,351.27 1718.88,397.77 				"/>
				<g>
					<polygon class="st3" points="1718.88,404.83 1714.82,394.88 1718.88,397.25 1722.95,394.88 					"/>
				</g>
			</g>
		</g>
	</g>
	<rect x="1596.74" y="404.83" class="st4" width="244.29" height="270.5"/>
	<rect x="1596.74" y="724.11" class="st1" width="244.29" height="282.29"/>
	<g>
		<line class="st2" x1="1546.99" y1="351.27" x2="1346.66" y2="351.27"/>
		<path class="st4" d="M1353.6,351.27h48.14c0-12.45,5.05-23.72,13.21-31.88l-34.04-34.04
			C1364.04,302.22,1353.6,325.53,1353.6,351.27z"/>
		<path class="st5" d="M1380.91,285.35l34.04,34.04c8.16-8.16,19.43-13.21,31.88-13.21v-48.14
			C1421.08,258.04,1397.78,268.48,1380.91,285.35z"/>
		<path class="st6" d="M1446.83,258.04v48.14c12.45,0,23.72,5.05,31.88,13.21l34.04-34.04
			C1495.88,268.48,1472.57,258.04,1446.83,258.04z"/>
		<path class="st7" d="M1512.75,285.35l-34.04,34.04c8.16,8.16,13.21,19.43,13.21,31.88h48.14
			C1540.05,325.53,1529.62,302.22,1512.75,285.35z"/>
	</g>
	<g>
		<rect x="78.97" y="295.51" class="st1" width="489.68" height="487.66"/>
	</g>
	<g>
		<rect x="78.97" y="882.8" class="st8" width="489.68" height="123.61"/>
	</g>
	<g>
		<rect x="78.97" y="43.98" class="st8" width="489.68" height="151.54"/>
	</g>
	<g>
		<g>
			<line class="st2" x1="323.81" y1="288.45" x2="323.81" y2="195.53"/>
			<g>
				<polygon class="st3" points="323.81,295.51 327.88,285.56 323.81,287.92 319.75,285.56 				"/>
			</g>
		</g>
	</g>
	<g>
		<g>
			<line class="st2" x1="1718.88" y1="675.52" x2="1718.88" y2="717.05"/>
			<g>
				<polygon class="st3" points="1718.88,724.11 1714.82,714.16 1718.88,716.53 1722.95,714.16 				"/>
			</g>
		</g>
	</g>
	<g>
		<g>
			<line class="st2" x1="1731.34" y1="724.11" x2="1731.34" y2="682.59"/>
			<g>
				<polygon class="st3" points="1731.34,675.52 1735.4,685.47 1731.34,683.11 1727.27,685.47 				"/>
			</g>
		</g>
	</g>
	<rect x="1424.54" y="882.8" class="st1" width="123.61" height="123.61"/>
	<g>
		<g>
			<line class="st2" x1="1596.74" y1="944.6" x2="1555.21" y2="944.6"/>
			<g>
				<polygon class="st3" points="1548.15,944.6 1558.1,940.53 1555.74,944.6 1558.1,948.66 				"/>
			</g>
		</g>
	</g>
	<g>
		<g>
			<rect x="1440.4" y="898.72" class="st0" width="91.57" height="91.57"/>
		</g>
	</g>
</g>
<g id="Calque_2_1_">
</g>
<g id="Calque_3">
</g>
</svg>
