<?xml version="1.0" encoding="utf-8"?>
<!-- Generator: Adobe Illustrator 25.2.1, SVG Export Plug-In . SVG Version: 6.00 Build 0)  -->
<svg version="1.1" id="Calque_1" xmlns="http://www.w3.org/2000/svg" xmlns:xlink="http://www.w3.org/1999/xlink" x="0px" y="0px"
	 viewBox="0 0 1920 1080" style="enable-background:new 0 0 1920 1080;" xml:space="preserve">
<style type="text/css">
	.st0{fill:#E2DDDB;}
	.st1{fill:#FFFFFF;stroke:#333333;stroke-miterlimit:10;}
	.st2{fill:none;stroke:#333333;stroke-miterlimit:10;}
	.st3{fill:#333333;}
	.st4{fill:#F2BDB6;stroke:#333333;stroke-miterlimit:10;}
	.st5{fill:#F28577;stroke:#333333;stroke-miterlimit:10;}
	.st6{fill:#F2594E;stroke:#333333;stroke-miterlimit:10;}
	.st7{fill:#EF4023;stroke:#333333;stroke-miterlimit:10;}
	.st8{fill:#333333;stroke:#333333;stroke-miterlimit:10;}
</style>
<g id="Calque_1_1_">
	<g>
		<rect y="0" class="st0" width="1920" height="1080"/>
	</g>
	<g>
		<g>
			<rect x="79" y="295.5" class="st1" width="489.7" height="487.7"/>
		</g>
	</g>
	<g>
		<g>
			<g>
				<polyline class="st2" points="1546.2,351.3 1718.9,351.3 1718.9,397.8 				"/>
				<g>
					<polygon class="st3" points="1718.9,404.8 1714.8,394.9 1718.9,397.2 1722.9,394.9 					"/>
				</g>
			</g>
		</g>
	</g>
	<rect x="1596.7" y="404.8" class="st4" width="244.3" height="270.5"/>
	<rect x="1596.7" y="724.1" class="st1" width="244.3" height="282.3"/>
	<g>
		<line class="st2" x1="1547" y1="351.3" x2="1346.7" y2="351.3"/>
		<path class="st4" d="M1353.6,351.3h48.1c0-12.5,5.1-23.7,13.2-31.9l-34-34C1364,302.2,1353.6,325.5,1353.6,351.3z"/>
		<path class="st5" d="M1380.9,285.4l34,34c8.2-8.2,19.4-13.2,31.9-13.2V258C1421.1,258,1397.8,268.5,1380.9,285.4z"/>
		<path class="st6" d="M1446.8,258v48.1c12.4,0,23.7,5,31.9,13.2l34-34C1495.9,268.5,1472.6,258,1446.8,258z"/>
		<path class="st7" d="M1512.8,285.4l-34,34c8.2,8.2,13.2,19.4,13.2,31.9h48.1C1540.1,325.5,1529.6,302.2,1512.8,285.4z"/>
	</g>
	<g>
		<rect x="79" y="295.5" class="st1" width="489.7" height="487.7"/>
	</g>
	<g>
		<rect x="79" y="44" class="st8" width="489.7" height="151.5"/>
	</g>
	<g>
		<g>
			<line class="st2" x1="323.8" y1="288.5" x2="323.8" y2="195.5"/>
			<g>
				<polygon class="st3" points="323.8,295.5 327.9,285.6 323.8,287.9 319.8,285.6 				"/>
			</g>
		</g>
	</g>
	<g>
		<g>
			<line class="st2" x1="1718.9" y1="675.5" x2="1718.9" y2="717"/>
			<g>
				<polygon class="st3" points="1718.9,724.1 1714.8,714.2 1718.9,716.5 1722.9,714.2 				"/>
			</g>
		</g>
	</g>
	<g>
		<g>
			<line class="st2" x1="1731.3" y1="724.1" x2="1731.3" y2="682.6"/>
			<g>
				<polygon class="st3" points="1731.3,675.5 1735.4,685.5 1731.3,683.1 1727.3,685.5 				"/>
			</g>
		</g>
	</g>
	<g>
		<g>
			<line class="st2" x1="1596.7" y1="944.6" x2="1555.2" y2="944.6"/>
			<g>
				<polygon class="st3" points="1548.2,944.6 1558.1,940.5 1555.7,944.6 1558.1,948.7 				"/>
			</g>
		</g>
	</g>
</g>
<g id="Calque_2_1_">
</g>
<g id="Calque_3">
</g>
</svg>
