<?xml version="1.0" encoding="utf-8"?>
<!-- Generator: Adobe Illustrator 25.2.3, SVG Export Plug-In . SVG Version: 6.00 Build 0)  -->
<svg version="1.1" id="Calque_1" xmlns="http://www.w3.org/2000/svg" xmlns:xlink="http://www.w3.org/1999/xlink" x="0px" y="0px"
	 viewBox="0 0 1920 1080" style="enable-background:new 0 0 1920 1080;" xml:space="preserve">
<style type="text/css">
	.st0{fill:#E2DDDB;}
	.st1{fill:#FFFFFF;stroke:#333333;stroke-miterlimit:10;}
	.st2{fill:none;stroke:#333333;stroke-miterlimit:10;}
	.st3{fill:#333333;}
	.st4{fill:#F2BDB6;stroke:#333333;stroke-miterlimit:10;}
	.st5{fill:#F28577;stroke:#333333;stroke-miterlimit:10;}
	.st6{fill:#F2594E;stroke:#333333;stroke-miterlimit:10;}
	.st7{fill:#EF4023;stroke:#333333;stroke-miterlimit:10;}
	.st8{fill:#EF4023;}
	.st9{fill:none;stroke:#EF4023;stroke-width:2;stroke-miterlimit:10;}
</style>
<g id="Calque_1_1_">
	<g>
		<rect class="st0" width="1920" height="1080"/>
	</g>
	<g>
		<g>
			<rect x="79" y="295.5" class="st1" width="489.7" height="487.7"/>
		</g>
	</g>
	<g>
		<g>
			<g>
				<polyline class="st2" points="1546.2,351.3 1718.9,351.3 1718.9,397.8 				"/>
				<g>
					<polygon class="st3" points="1718.9,404.8 1714.8,394.9 1718.9,397.2 1722.9,394.9 					"/>
				</g>
			</g>
		</g>
	</g>
	<rect x="1596.7" y="404.8" class="st4" width="244.3" height="270.5"/>
	<rect x="1596.7" y="724.1" class="st1" width="244.3" height="282.3"/>
	<g>
		<line class="st2" x1="1547" y1="351.3" x2="1346.7" y2="351.3"/>
		<path class="st4" d="M1353.6,351.3h48.1c0-12.5,5.1-23.7,13.2-31.9l-34-34C1364,302.2,1353.6,325.5,1353.6,351.3z"/>
		<path class="st5" d="M1380.9,285.4l34,34c8.2-8.2,19.4-13.2,31.9-13.2V258C1421.1,258,1397.8,268.5,1380.9,285.4z"/>
		<path class="st6" d="M1446.8,258v48.1c12.4,0,23.7,5,31.9,13.2l34-34C1495.9,268.5,1472.6,258,1446.8,258z"/>
		<path class="st7" d="M1512.8,285.4l-34,34c8.2,8.2,13.2,19.4,13.2,31.9h48.1C1540.1,325.5,1529.6,302.2,1512.8,285.4z"/>
	</g>
	<g>
		<rect x="79" y="295.5" class="st1" width="489.7" height="487.7"/>
	</g>
	<g>
		<g>
			<line class="st2" x1="1718.9" y1="675.5" x2="1718.9" y2="717"/>
			<g>
				<polygon class="st3" points="1718.9,724.1 1714.8,714.2 1718.9,716.5 1722.9,714.2 				"/>
			</g>
		</g>
	</g>
	<g>
		<g>
			<line class="st2" x1="1731.3" y1="724.1" x2="1731.3" y2="682.6"/>
			<g>
				<polygon class="st3" points="1731.3,675.5 1735.4,685.5 1731.3,683.1 1727.3,685.5 				"/>
			</g>
		</g>
	</g>
	<g>
		<g>
			<line class="st2" x1="1596.7" y1="944.6" x2="1555.2" y2="944.6"/>
			<g>
				<polygon class="st3" points="1548.2,944.6 1558.1,940.5 1555.7,944.6 1558.1,948.7 				"/>
			</g>
		</g>
	</g>
</g>
<g id="Calque_2_1_">
</g>
<g id="Calque_3">
</g>
<g>
	<g>
		<path class="st8" d="M820.2,182.7v-21.1h3.6v17.6h8.5v3.6H820.2z"/>
		<path class="st8" d="M839.3,174.3c0.9,0,1.7,0.8,1.7,1.7s-0.8,1.7-1.7,1.7h-2.9c0.6,1,1.7,1.7,2.9,1.7c0.9,0,1.5-0.3,2.2-0.7
			c0.4-0.3,0.8-0.5,1.2-0.5c0.9,0,1.7,0.8,1.7,1.7c0,0.4-0.2,0.9-0.6,1.3c-1.2,1-2.8,1.6-4.5,1.6c-3.8,0-6.9-3.1-6.9-6.9
			s3.1-6.9,6.9-6.9c1.7,0,3.3,0.6,4.5,1.6c0.5,0.4,0.6,0.9,0.6,1.3c0,0.9-0.8,1.7-1.7,1.7c-0.4,0-0.7-0.1-1.1-0.4
			c-0.6-0.5-1.4-0.8-2.2-0.8c-1.3,0-2.3,0.7-2.9,1.7H839.3z"/>
		<path class="st8" d="M857.7,182.7V169l2.4,1.4c1.2-0.7,2.5-1.2,3.8-1.2c2.5,0,4.2,1.5,4.2,4.1c0,0.9-0.8,1.7-1.7,1.7
			c-1,0-1.7-0.8-1.7-1.7c0-0.4-0.3-0.6-0.7-0.6c-0.9,0-2,0.5-2.8,1.2v8.9H857.7z"/>
		<path class="st8" d="M875.5,174.3c0.9,0,1.7,0.8,1.7,1.7s-0.8,1.7-1.7,1.7h-2.9c0.6,1,1.7,1.7,2.9,1.7c0.9,0,1.5-0.3,2.2-0.7
			c0.4-0.3,0.8-0.5,1.2-0.5c0.9,0,1.7,0.8,1.7,1.7c0,0.4-0.2,0.9-0.6,1.3c-1.2,1-2.8,1.6-4.5,1.6c-3.8,0-6.9-3.1-6.9-6.9
			s3.1-6.9,6.9-6.9c1.7,0,3.3,0.6,4.5,1.6c0.5,0.4,0.6,0.9,0.6,1.3c0,0.9-0.8,1.7-1.7,1.7c-0.4,0-0.7-0.1-1.1-0.4
			c-0.6-0.5-1.4-0.8-2.2-0.8c-1.3,0-2.3,0.7-2.9,1.7H875.5z M875.5,166.2c-0.6,0.6-1.6,0.6-2.3,0c-0.6-0.6-0.6-1.6,0-2.3l4-4
			c0.6-0.6,1.6-0.6,2.2,0c0.7,0.6,0.7,1.6,0,2.2L875.5,166.2z"/>
		<path class="st8" d="M884.8,182.2c-0.5,0.8-1.6,1-2.4,0.4c-0.8-0.5-0.9-1.6-0.4-2.4l7.4-10.6c0.5-0.8,1.6-1,2.4-0.4
			c0.8,0.5,0.9,1.6,0.4,2.4l-0.4,0.6c-1.5,2.2,2.7,3.6,2.7,6.9c0,2.2-1.8,3.9-3.9,3.9c-1.5,0-3.4-1.1-3.4-2.5c0-0.9,0.8-1.7,1.7-1.7
			c1.1,0,1.1,0.8,1.7,0.8c0.3,0,0.5-0.2,0.5-0.5c0-0.9-0.8-1.5-2-2.9L884.8,182.2z"/>
		<path class="st8" d="M903.4,174.3c0.9,0,1.7,0.8,1.7,1.7s-0.8,1.7-1.7,1.7h-2.9c0.6,1,1.7,1.7,2.9,1.7c0.9,0,1.5-0.3,2.2-0.7
			c0.4-0.3,0.8-0.5,1.2-0.5c0.9,0,1.7,0.8,1.7,1.7c0,0.4-0.2,0.9-0.6,1.3c-1.2,1-2.8,1.6-4.5,1.6c-3.8,0-6.9-3.1-6.9-6.9
			s3.1-6.9,6.9-6.9c1.7,0,3.3,0.6,4.5,1.6c0.5,0.4,0.6,0.9,0.6,1.3c0,0.9-0.8,1.7-1.7,1.7c-0.4,0-0.7-0.1-1.1-0.4
			c-0.6-0.5-1.4-0.8-2.2-0.8c-1.3,0-2.3,0.7-2.9,1.7H903.4z"/>
		<path class="st8" d="M913.2,172.8c-0.9,0-1.7-0.8-1.7-1.7s0.8-1.7,1.7-1.7h7.7v13.8l-2.3-1.3c-0.7,0.5-2.3,1-3.1,1
			c-2.9,0-5.1-1.4-5.1-3.9c0-2.7,2.7-4.2,5.3-4.2c0.6,0,1.2,0.1,1.8,0.2v-2.1H913.2z M917.7,177.9c-0.7-0.2-1.5-0.3-2.1-0.3
			c-0.7,0-1.9,0.2-1.9,1.3c0,0.6,0.6,1,1.6,1c1,0,1.7-0.3,2.3-0.8V177.9z"/>
		<path class="st8" d="M933.7,169.2c0.9,0,1.7,0.8,1.7,1.7v6.8c0,2.9-2.3,5.2-5.2,5.2c-2.9,0-5.2-2.3-5.2-5.2v-6.8
			c0-0.9,0.8-1.7,1.7-1.7c0.9,0,1.7,0.8,1.7,1.7v6.8c0,0.9,0.8,1.7,1.7,1.7c1,0,1.8-0.7,1.8-1.7v-6.8
			C932,170,932.8,169.2,933.7,169.2z"/>
		<path class="st8" d="M959.7,181.5c-0.9,0.7-2.4,1.4-4.1,1.4c-3.8,0-6.9-3.1-6.9-6.9s3.1-6.9,6.9-6.9c1.3,0,2.4,0.3,3.4,0.9v-12.9
			h3.4v25.9L959.7,181.5z M955.6,172.6c-1.9,0-3.4,1.5-3.4,3.4c0,1.9,1.5,3.4,3.4,3.4s3.4-1.5,3.4-3.4
			C959,174.1,957.5,172.6,955.6,172.6z"/>
		<path class="st8" d="M972.6,174.3c0.9,0,1.7,0.8,1.7,1.7s-0.8,1.7-1.7,1.7h-2.9c0.6,1,1.7,1.7,2.9,1.7c0.9,0,1.5-0.3,2.2-0.7
			c0.4-0.3,0.8-0.5,1.2-0.5c0.9,0,1.7,0.8,1.7,1.7c0,0.4-0.2,0.9-0.6,1.3c-1.2,1-2.8,1.6-4.5,1.6c-3.8,0-6.9-3.1-6.9-6.9
			s3.1-6.9,6.9-6.9c1.7,0,3.3,0.6,4.5,1.6c0.5,0.4,0.6,0.9,0.6,1.3c0,0.9-0.8,1.7-1.7,1.7c-0.4,0-0.7-0.1-1.1-0.4
			c-0.6-0.5-1.4-0.8-2.2-0.8c-1.3,0-2.3,0.7-2.9,1.7H972.6z"/>
		<path class="st8" d="M991,182.7V169l2.1,1.2c0.4-0.4,1.6-1,3.1-1c2.9,0,5.2,2.3,5.2,5.2v6.8c0,0.9-0.8,1.7-1.7,1.7
			s-1.7-0.8-1.7-1.7v-6.8c0-1-0.8-1.7-1.8-1.7c-0.9,0-1.7,0.8-1.7,1.7v8.3H991z"/>
		<path class="st8" d="M1011.4,174.3c0.9,0,1.7,0.8,1.7,1.7s-0.8,1.7-1.7,1.7h-2.9c0.6,1,1.7,1.7,2.9,1.7c0.9,0,1.5-0.3,2.2-0.7
			c0.4-0.3,0.8-0.5,1.2-0.5c0.9,0,1.7,0.8,1.7,1.7c0,0.4-0.2,0.9-0.6,1.3c-1.2,1-2.8,1.6-4.5,1.6c-3.8,0-6.9-3.1-6.9-6.9
			s3.1-6.9,6.9-6.9c1.7,0,3.3,0.6,4.5,1.6c0.5,0.4,0.6,0.9,0.6,1.3c0,0.9-0.8,1.7-1.7,1.7c-0.4,0-0.7-0.1-1.1-0.4
			c-0.6-0.5-1.4-0.8-2.2-0.8c-1.3,0-2.3,0.7-2.9,1.7H1011.4z"/>
		<path class="st8" d="M1028.1,169.2c0.9,0,1.7,0.8,1.7,1.7v6.8c0,2.9-2.3,5.2-5.2,5.2s-5.2-2.3-5.2-5.2v-6.8c0-0.9,0.8-1.7,1.7-1.7
			s1.7,0.8,1.7,1.7v6.8c0,0.9,0.8,1.7,1.7,1.7c1,0,1.8-0.7,1.8-1.7v-6.8C1026.3,170,1027.1,169.2,1028.1,169.2z"/>
		<path class="st8" d="M1033.9,182.7V169l2.4,1.4c1.2-0.7,2.5-1.2,3.8-1.2c2.5,0,4.2,1.5,4.2,4.1c0,0.9-0.8,1.7-1.7,1.7
			c-1,0-1.7-0.8-1.7-1.7c0-0.4-0.3-0.6-0.7-0.6c-0.9,0-2,0.5-2.8,1.2v8.9H1033.9z"/>
		<path class="st8" d="M1051.7,182.9c-3.8,0-6.9-3.1-6.9-6.9s3.1-6.9,6.9-6.9s6.9,3.1,6.9,6.9S1055.5,182.9,1051.7,182.9z
			 M1048.3,176c0,1.9,1.5,3.4,3.4,3.4c1.9,0,3.4-1.5,3.4-3.4c0-1.9-1.5-3.4-3.4-3.4C1049.8,172.6,1048.3,174.1,1048.3,176z"/>
		<path class="st8" d="M1061.9,182.7V169l2.1,1.2c0.4-0.4,1.6-1,3.1-1c2.9,0,5.2,2.3,5.2,5.2v6.8c0,0.9-0.8,1.7-1.7,1.7
			s-1.7-0.8-1.7-1.7v-6.8c0-1-0.8-1.7-1.8-1.7c-0.9,0-1.7,0.8-1.7,1.7v8.3H1061.9z"/>
		<path class="st8" d="M1082.3,174.3c0.9,0,1.7,0.8,1.7,1.7s-0.8,1.7-1.7,1.7h-2.9c0.6,1,1.7,1.7,2.9,1.7c0.9,0,1.5-0.3,2.2-0.7
			c0.4-0.3,0.8-0.5,1.2-0.5c0.9,0,1.7,0.8,1.7,1.7c0,0.4-0.2,0.9-0.6,1.3c-1.2,1-2.8,1.6-4.5,1.6c-3.8,0-6.9-3.1-6.9-6.9
			s3.1-6.9,6.9-6.9c1.7,0,3.3,0.6,4.5,1.6c0.5,0.4,0.6,0.9,0.6,1.3c0,0.9-0.8,1.7-1.7,1.7c-0.4,0-0.7-0.1-1.1-0.4
			c-0.6-0.5-1.4-0.8-2.2-0.8c-1.3,0-2.3,0.7-2.9,1.7H1082.3z"/>
		<path class="st8" d="M1091.6,182.2c-0.5,0.8-1.6,1-2.4,0.4s-0.9-1.6-0.4-2.4l7.4-10.6c0.5-0.8,1.6-1,2.4-0.4
			c0.8,0.5,0.9,1.6,0.4,2.4l-0.4,0.6c-1.5,2.2,2.7,3.6,2.7,6.9c0,2.2-1.8,3.9-3.9,3.9c-1.5,0-3.4-1.1-3.4-2.5c0-0.9,0.8-1.7,1.7-1.7
			c1.1,0,1.1,0.8,1.7,0.8c0.3,0,0.5-0.2,0.5-0.5c0-0.9-0.8-1.5-2-2.9L1091.6,182.2z"/>
	</g>
</g>
<g>
	<g>
		<path class="st8" d="M763.1,144.8h-13.3l-6.7-15.2l-6.7,15.2h-13.3l13.3-30.4l-6.5-15.1L710,144.8h-13.3L730,68.8l13.1,30.3
			l13.3-30.3l33.1,76.1h-13.3l-19.9-45.5l-6.5,14.9L763.1,144.8z"/>
		<path class="st8" d="M798.8,144.8h-13.3l35.9-76.1l35.6,76.1h-13.3l-6.5-14h-31.6L798.8,144.8z M821.3,97.2l-10,21.3h20
			L821.3,97.2z"/>
		<path class="st8" d="M881.2,120.3v24.5H869V84.9h-0.7c-3.3,0-6-2.7-6-6c0-3.3,2.7-6.1,6-6.1H885c13.1,0,23.7,10.7,23.7,23.8
			c0,7.3-3.3,13.7-8.5,18.1c7.1,4.9,11.5,11.3,14.4,21.1c0.4,1.3,0.8,3.5,0.8,4.4c0,3.3-2.8,6-6.1,6s-5.5-2.4-6-5.1
			c-0.1-0.7-0.4-2.1-0.7-2.9C900,128.4,891.6,121.2,881.2,120.3z M885,84.9h-3.9V108h3.9c6.4,0,11.6-5.1,11.6-11.5
			S891.4,84.9,885,84.9z"/>
		<path class="st8" d="M987,87.2c0,3.3-2.8,6-6.1,6c-1.6,0-3.2-0.7-4.3-1.7c-3.5-3.5-9.5-7.2-17.5-7.2c-13.6,0-24.5,10.9-24.5,24.5
			c0,13.6,10.9,24.5,24.5,24.5c9.5,0,15.5-5.2,17.7-7.5c1.1-1.1,2.7-1.7,4.3-1.7c3.3,0,6.1,2.7,6.1,6c0,1.6-0.7,3.2-1.6,4.1
			c-1.7,1.9-10.9,11.2-26.6,11.2c-20.4,0-36.7-16.3-36.7-36.7c0-20.4,16.3-36.7,36.7-36.7c13.7,0,22.7,7.3,26,10.7
			C986.3,84,987,85.5,987,87.2z"/>
		<path class="st8" d="M1035.9,88.8c-4.1,0-5.3-4.5-12.4-4.5c-7.5,0-13.5,6.1-13.5,13.9c4-2.4,8.5-3.9,13.5-3.9
			c14.8,0,18.3,9.2,18.3,14.5s-3.5,14.5-18.3,14.5c-4.9,0-9.5-1.3-13.5-3.9c0,7.7,6,13.7,13.5,13.7s8.4-4.5,12.7-4.5
			c3.3,0,6.1,2.7,6.1,6c0,5.7-10.3,10.8-18.8,10.8c-14.1,0-25.6-11.5-25.6-25.6c0-4,0.9-7.7,2.5-11.1c-1.6-3.3-2.5-7.1-2.5-11.1
			c0-14.1,11.5-25.6,25.6-25.6c8.3,0,18.5,4.8,18.5,10.7C1042.1,86.1,1039.3,88.8,1035.9,88.8z M1015.2,108.8c2.4,2,5.2,3.2,8.3,3.2
			c3.9,0,6.8-0.8,6.8-3.2s-2.9-3.3-6.8-3.3C1020.5,105.5,1017.7,106.8,1015.2,108.8z"/>
		<path class="st8" d="M1054.6,144.8v-72h12.1v59.9h28.8v12.1H1054.6z"/>
		<path class="st8" d="M1101.2,144.8v-72h12.1v59.9h28.8v12.1H1101.2z"/>
		<path class="st8" d="M1179.8,145.5c-20.4,0-36.7-16.3-36.7-36.7c0-20.4,16.3-36.7,36.7-36.7c20.4,0,36.7,16.3,36.7,36.7
			C1216.5,129.2,1200.2,145.5,1179.8,145.5z M1179.8,84.3c-13.6,0-24.5,10.9-24.5,24.5c0,13.6,10.9,24.5,24.5,24.5
			c13.6,0,24.5-10.9,24.5-24.5C1204.3,95.2,1193.4,84.3,1179.8,84.3z"/>
	</g>
</g>
<line class="st9" x1="887.5" y1="199.2" x2="1030.3" y2="199.2"/>
</svg>
