<?xml version="1.0" encoding="utf-8"?>
<!-- Generator: Adobe Illustrator 25.0.0, SVG Export Plug-In . SVG Version: 6.00 Build 0)  -->
<svg version="1.1" id="Calque_1" xmlns="http://www.w3.org/2000/svg" xmlns:xlink="http://www.w3.org/1999/xlink" x="0px" y="0px"
	 viewBox="0 0 257 300" style="enable-background:new 0 0 257 300;" xml:space="preserve">
<style type="text/css">
	.st0{fill:#FFFFFF;}
</style>
<path class="st0" d="M257,134c-6.5,17.4-14,34.6-15.2,53.6c-0.1,2.3-1.8,6-3.3,6.4c-2.2,0.5-5.2-1.1-7.6-2.3c-1.3-0.8-2.3-1.9-3-3.3
	c-12.2-18.9-29.2-32.4-49.6-41.3s-40.9-16.8-61.5-24.9c-2.7-1.1-6.6-3.8-8.7,0.8c-2,4.3,0.8,7.4,4.5,9.3
	c12.1,6.3,24.3,12.5,36.4,18.7c3.6,1.8,7.1,3.6,10.6,5.6c6.4,3.8,7.4,9,2.6,14.9c-6.6,8.3-15.7,10.8-26.1,11.1
	c-21.4,0.8-41.4-6-61.7-11c-11.6-2.9-23.2-6.1-34.8-9c-2.6-0.7-5.2-1-7.9-0.8c-1.6,0.2-4.1,1.7-4.4,3c-0.3,2,0.4,4.1,1.8,5.6
	c2.1,1.7,4.5,2.9,7.1,3.5c15.2,4.4,30.4,8.6,45.6,13c8.5,2.5,16.9,5,25.1,8.2c6.4,2.5,9.2,6.5,8,10c-2,5.5-6.9,4.6-11.1,4.3
	c-21.1-1.5-42.2-3.3-63.3-4.9c-8.3-0.6-16.6-1.2-24.9-1.2c-1.8,0-5,2-5,3.2c-0.1,2,1.4,5.1,3.1,5.8c3.7,1.5,7.5,2.4,11.5,2.7
	c24.2,2.2,48.4,4.1,72.7,6.2c5.4,0.5,10.4,1.9,14,6.6c3.2,4.1,2.8,6.9-2.2,8.2c-7.1,1.8-14.3,3.1-21.5,3.9
	c-18.7,2-37.5,3.5-56.2,5.2c-2,0.2-4.2,0.1-5.8,1.1s-3.9,3.1-3.8,4.7s2.6,4.1,4.2,4.1c7.6,0.3,15.3,0.3,22.9-0.2
	c22.1-1.4,44.2-3,66.3-4.6c3.6-0.3,6.9,0.2,7.9,4.2c1,4-1.5,6.9-5,8.1c-9.4,3.3-19,6.3-28.4,9.5c-9.3,3.1-18.6,6.3-27.8,9.6
	c-2.4,0.9-6.3,1.5-5.3,5.3s4.6,3.1,7.6,2.4c15.5-3.7,31-8,46.6-11c20.9-4,42-7.1,63-10.4c4.9-0.9,9.9-1.4,14.9-1.5
	c2.1,0,4.2,2.2,6.3,3.4c-1.7,1.3-3.2,3.5-5,3.9c-13.9,2.6-28,4.4-41.8,7.3c-27.3,5.8-54.6,12.2-81.8,18.3c-0.3,0.1-0.5,0.4-0.8,0.6
	h-8c-1.1-0.7-2.2-1.4-3.3-2.1c-4.5-3.1-7.6-7-7.4-12.8c0.2-6,3.6-9.9,8.9-12.1c3.7-1.5,7.5-2.7,11.3-3.9c6.5-2.1,13.1-4.3,19.6-6.4
	c-3.2-0.9-6.1-0.6-9-0.4c-16.4,1.1-32.8,2.5-49.3,3.3c-9.3,0.4-15-4.3-15.7-11.9c-1-10.7,1.8-14.6,12.3-16.9c1.8-0.4,3.6-0.8,5.4-1
	c13.6-1.3,27.2-2.6,40.7-4c1.8-0.2,3.5-0.7,5.3-1c-1.4-1.1-3.2-1.7-5-1.8c-16.9-1.4-33.8-3.4-50.8-4C11,224.7,3.8,221.6,0,212v-8
	c0.8-1.4,1.6-2.8,2.5-4.2c3.3-5.2,7.9-8,14.2-7.4c10.4,1,20.9,2.1,31.3,3.2c11.8,1.2,23.7,2.3,35.6,3.4c-1.6-1.5-3.5-2.5-5.6-3
	c-16.6-5-33.2-9.8-49.7-15c-8.4-2.7-12.4-9.2-10.9-16.1c1.9-8.7,8.7-13.6,17.8-12.3c7.2,1,14.4,2.4,21.5,4.2
	c16.7,4.1,33.2,8.5,49.8,12.7c1.8,0.4,3.6,0.6,5.5,0.8c-2.2-3.9-4.9-7.5-8-10.8c-13.6-15.5-27.4-31-40.8-46.7
	c-3.2-3.8-5.6-8.2-7.2-12.9c-2.1-5.7,0-12.1,5-15.5c5.4-3.4,10.5-1.8,14.7,1.8c5.8,5,11.1,10.5,16.6,15.8l6,5.8l1.1-1
	c-1.2-1.9-2.3-3.9-3.7-5.7c-5-6.8-10.4-13.4-15.2-20.4c-5.2-7.5-10.4-15.1-14.7-23.2c-4.5-8.5-1.7-14.7,7.7-20.2
	c6.5-3.8,10.8-2.8,16.4,4.9c7.3,10.1,14.2,20.5,21.3,30.8c1,1.5,2.2,2.9,3.2,4.3l1.1-0.8c-0.8-2.3-1.8-4.5-2.9-6.7
	c-3.9-7-7.9-13.9-11.9-20.8s-8.7-13.9-12-21.3c-1.5-3.4-1.8-8.6-0.2-11.8c5.5-11.5,20-12.3,27.3-1.9c3.5,4.9,6.6,10,9.5,15.3
	c5.5,10.3,10.5,20.8,15.8,31.2c1,2,2.3,3.7,3.5,5.6l1.5-0.7c-0.9-2.7-1.7-5.4-2.7-8.1c-4.8-12.4-10.1-24.6-14.4-37.2
	C125,8.5,126.1,6.6,136,0h8c6.9,2.8,10.9,8.1,13.9,14.8c10.5,23.5,21,47.1,32.1,70.4c3.4,7.1,8.4,13.5,13.2,19.9
	c2.4,3.2,6.1,7.5,10.2,5.2c2.6-1.5,4-6.6,4.5-10.3c1.7-12.5,2.3-25.2,4.2-37.7c0.9-5.4,3-10.5,6-15c4.2-6.2,10.9-5.2,17.3-3.6
	c5.7,1.4,7.8,6,8.5,11.1c0.7,5.1,0.9,10.3,1.2,15.4c0.6,10.2,1.2,20.5,1.9,30.7L257,134z M202.8,118.7c-0.9-1.4-1.9-2.8-3.1-4
	c-9.6-8.9-15.9-20.1-21.5-31.7c-8.6-18-16.8-36.2-25.3-54.3c-2.4-5.3-5-10.5-8-15.5c-1.2-1.9-4-2.8-6-4.1c-0.5,2.3-1.6,4.7-1.3,6.9
	c0.9,4.6,2.1,9.1,3.7,13.4c6.9,19.1,14,38.1,20.8,57.2c1,2.6,1.5,5.4,1.5,8.2c-0.1,1.8-1.7,4.4-3.2,4.9c-1.8,0.6-4.6,0-6.3-1.1
	s-3.1-3.4-4.3-5.4c-4.1-6.9-8-13.8-12-20.8c-9.8-17.4-19.5-34.9-29.4-52.2c-2.8-4.9-5.6-5.1-10.2-1.8c-3.4,2.5-2.7,5.4-1.1,8.3
	c9.2,16.6,18.6,33.1,27.4,49.9c5,9.5,9.3,19.5,13.7,29.4c1.2,2.7,1.2,6.3-2.2,7.2c-2.5,0.6-5.7-0.3-8.1-1.5c-1.9-1-3-3.5-4.3-5.4
	c-13.1-18.9-26.2-37.7-39.3-56.7c-1.8-2.6-3.7-4.2-7.1-2.9c-4.4,1.8-5.7,4.9-3,9c8.5,12.7,17.6,25.1,25.8,38
	c6.8,10.6,15.1,18,27.5,22c17.1,5.6,33.4,13.4,50.1,20c1.9,0.7,5,1.1,6.3,0C190.5,130.4,196.4,124.6,202.8,118.7L202.8,118.7z
	 M232,176.4c3.9-10.9,7.8-20.9,10.8-31c2-7,3.5-14.1,4.2-21.4c0.7-6.1,0.3-12.3,0-18.5c-0.8-16.1-1.9-32.2-2.9-48.3
	c-0.2-3.1-1.6-6.1-4.9-5.7c-2.3,0.3-4.9,2.4-6.3,4.5c-1.3,1.9-1.5,4.7-1.8,7.2c-1.7,13.7-3.7,27.4-4.7,41.1
	c-0.7,10.2-6.1,16.3-14.4,21.1c-5,2.9-9.8,6.3-14.1,10.2c-5.8,5.1-5.5,6.2,0.4,11c8.4,6.8,16.9,13.5,25.1,20.5
	C226.4,169.7,228.9,173.1,232,176.4z M154.3,165.7c-13.2-8.4-26.5-15.6-40.8-20.7c-9.7-3.5-15.3-10.2-16.3-20.3
	c-0.3-3-0.8-6.7-2.7-8.8c-6.8-7.5-14.1-14.5-21.6-21.3c-1.4-1.3-4.5-0.8-6.8-1.1c-0.1,2.3-1.1,5.2-0.1,6.8c2.8,4.9,6.1,9.5,9.8,13.8
	c15.4,17.3,31.2,34.2,46.4,51.6c7.9,8.9,21.5,9.6,30.3,1.7C153.2,166.9,153.8,166.4,154.3,165.7L154.3,165.7z"/>
</svg>
